<?xml version="1.0" encoding="UTF-8" standalone="no"?><!DOCTYPE svg PUBLIC "-//W3C//DTD SVG 1.1//EN" "http://www.w3.org/Graphics/SVG/1.1/DTD/svg11.dtd"><svg width="100%" height="100%" viewBox="0 0 256 256" version="1.1" xmlns="http://www.w3.org/2000/svg" xmlns:xlink="http://www.w3.org/1999/xlink" xml:space="preserve" xmlns:serif="http://www.serif.com/" style="fill-rule:evenodd;clip-rule:evenodd;stroke-linejoin:round;stroke-miterlimit:2;"><rect x="0" y="0" width="256" height="256" style="fill:#e67d00;fill-rule:nonzero;"/><path d="M104.991,205.55l67.189,-92.5c1.85,-2.579 1.619,-7.736 -3.295,-7.736l-26.617,0c-3.122,0 -4.544,-2.312 -3.029,-5.168l23.657,-44.805c1.699,-2.775 1.653,-8.278 -3.469,-8.278l-48.609,0c-3.302,0.137 -6.175,2.355 -7.146,5.515l-20.535,81.515c-0.763,3.03 1.215,5.516 4.429,5.516l23.553,0c3.283,0 4.891,2.428 3.758,5.446c0,0 -21.576,56.991 -21.576,58.101c0.004,3.169 2.613,5.774 5.781,5.774c1.605,0 3.139,-0.668 4.232,-1.843c0.663,-0.385 1.235,-0.91 1.677,-1.537Z" style="fill:#fff;fill-rule:nonzero;"/></svg>